# xmcd
#
# Track frame offsets: 
#        150
#        26398
#        46085
#        67575
#        90545
#        114358
#        130785
#        150800
#        170903
#        194633
#        216273
#        235555
#
# Disc length: 3421 seconds
#
# Revision: 0
# Processed by: cddbd v1.5.2PL0 Copyright (c) Steve Scherf et al.
# Submitted via: ExactAudioCopy v1.0b3
#
DISCID=8d0d5b0c
DTITLE=Huong Lan, Thanh Phong - Dem Bo Vo
DYEAR=1989
DGENRE=
TTITLE0=Dem bo vo
TTITLE1=Huong Lan - Tram nam ben cu
TTITLE2=Thanh Phong - Giot le dai trang
TTITLE3=Nhu mot con me
TTITLE4=Thanh Phong - Thu nguoi con gai thanh do
TTITLE5=Huong Lan - Phuong buon
TTITLE6=Thiep hong anh viet ten em
TTITLE7=Thanh Phong - Tinh em bien rong song dai
TTITLE8=Huong Lan - Cho anh ben doi
TTITLE9=Hoa no ve dem
TTITLE10=Huong Lan - Nhung ngay mua ha tro ve
TTITLE11=Da ta
EXTD=
EXTT0=
EXTT1=
EXTT2=
EXTT3=
EXTT4=
EXTT5=
EXTT6=
EXTT7=
EXTT8=
EXTT9=
EXTT10=
EXTT11=
PLAYORDER=
